<mxfile host="app.diagrams.net" modified="2020-10-27T16:23:13.170Z" agent="5.0 (Windows NT 10.0; Win64; x64) AppleWebKit/537.36 (KHTML, like Gecko) Chrome/86.0.4240.111 Safari/537.36" etag="66Iv7vnOyrehqhBGgpbS" version="13.8.4" type="github">
  <diagram id="nlz6HhWHUakY99ADKuCU" name="Page-1">
    <mxGraphModel dx="3276" dy="1718" grid="1" gridSize="10" guides="1" tooltips="1" connect="1" arrows="1" fold="1" page="1" pageScale="1" pageWidth="850" pageHeight="1100" math="0" shadow="0">
      <root>
        <mxCell id="0" />
        <mxCell id="1" parent="0" />
        <mxCell id="2L-C-8yUvBPhGsB8Wb2w-13" value="AWS Cloud" style="points=[[0,0],[0.25,0],[0.5,0],[0.75,0],[1,0],[1,0.25],[1,0.5],[1,0.75],[1,1],[0.75,1],[0.5,1],[0.25,1],[0,1],[0,0.75],[0,0.5],[0,0.25]];outlineConnect=0;gradientColor=none;html=1;whiteSpace=wrap;fontSize=12;fontStyle=0;shape=mxgraph.aws4.group;grIcon=mxgraph.aws4.group_aws_cloud;strokeColor=#232F3E;fillColor=none;verticalAlign=top;align=left;spacingLeft=30;fontColor=#232F3E;dashed=0;" parent="1" vertex="1">
          <mxGeometry x="-520" y="450" width="2280" height="930" as="geometry" />
        </mxCell>
        <mxCell id="QjlcVA9k0Hzuv_SQqOKG-43" value="Redshift" style="fillColor=none;strokeColor=#147EBA;dashed=1;verticalAlign=top;fontStyle=0;fontColor=#147EBA;" vertex="1" parent="1">
          <mxGeometry x="1295" y="1030" width="390" height="240" as="geometry" />
        </mxCell>
        <mxCell id="QjlcVA9k0Hzuv_SQqOKG-28" value="DynamoDB" style="fillColor=none;strokeColor=#147EBA;dashed=1;verticalAlign=top;fontStyle=0;fontColor=#147EBA;" vertex="1" parent="1">
          <mxGeometry x="257.03999999999996" y="1020" width="390" height="240" as="geometry" />
        </mxCell>
        <mxCell id="QjlcVA9k0Hzuv_SQqOKG-4" value="RDS  " style="fillColor=none;strokeColor=#147EBA;dashed=1;verticalAlign=top;fontStyle=0;fontColor=#147EBA;" vertex="1" parent="1">
          <mxGeometry x="1295" y="691" width="390" height="240" as="geometry" />
        </mxCell>
        <mxCell id="2L-C-8yUvBPhGsB8Wb2w-10" value="TITLE" style="fillColor=#EFF0F3;strokeColor=none;dashed=0;verticalAlign=top;fontStyle=0;fontColor=#232F3D;" parent="1" vertex="1">
          <mxGeometry x="220" y="20" width="400" height="610" as="geometry" />
        </mxCell>
        <mxCell id="2L-C-8yUvBPhGsB8Wb2w-2" value="Client" style="text;html=1;strokeColor=none;fillColor=none;align=center;verticalAlign=middle;whiteSpace=wrap;rounded=0;fontSize=19;" parent="1" vertex="1">
          <mxGeometry x="270" y="103.65" width="40" height="20" as="geometry" />
        </mxCell>
        <mxCell id="2L-C-8yUvBPhGsB8Wb2w-5" style="edgeStyle=orthogonalEdgeStyle;rounded=0;orthogonalLoop=1;jettySize=auto;html=1;exitX=0.5;exitY=1;exitDx=0;exitDy=0;" parent="1" source="2L-C-8yUvBPhGsB8Wb2w-2" target="2L-C-8yUvBPhGsB8Wb2w-2" edge="1">
          <mxGeometry relative="1" as="geometry" />
        </mxCell>
        <mxCell id="2L-C-8yUvBPhGsB8Wb2w-6" value="" style="outlineConnect=0;fontColor=#232F3E;gradientColor=none;fillColor=#232F3E;strokeColor=none;dashed=0;verticalLabelPosition=bottom;verticalAlign=top;align=center;html=1;fontSize=12;fontStyle=0;aspect=fixed;pointerEvents=1;shape=mxgraph.aws4.client;" parent="1" vertex="1">
          <mxGeometry x="390" y="60" width="110.13" height="107.31" as="geometry" />
        </mxCell>
        <mxCell id="QjlcVA9k0Hzuv_SQqOKG-14" value="" style="edgeStyle=orthogonalEdgeStyle;rounded=0;orthogonalLoop=1;jettySize=auto;html=1;fontSize=19;startArrow=classic;startFill=1;" edge="1" parent="1" source="2L-C-8yUvBPhGsB8Wb2w-7" target="QjlcVA9k0Hzuv_SQqOKG-40">
          <mxGeometry relative="1" as="geometry">
            <mxPoint x="690" y="560" as="targetPoint" />
            <Array as="points">
              <mxPoint x="760" y="550" />
              <mxPoint x="760" y="811" />
            </Array>
          </mxGeometry>
        </mxCell>
        <mxCell id="QjlcVA9k0Hzuv_SQqOKG-26" value="" style="edgeStyle=orthogonalEdgeStyle;rounded=0;orthogonalLoop=1;jettySize=auto;html=1;startArrow=classic;startFill=1;fontSize=19;" edge="1" parent="1" source="2L-C-8yUvBPhGsB8Wb2w-7" target="QjlcVA9k0Hzuv_SQqOKG-25">
          <mxGeometry relative="1" as="geometry">
            <Array as="points">
              <mxPoint x="452" y="690" />
              <mxPoint x="452" y="690" />
            </Array>
          </mxGeometry>
        </mxCell>
        <mxCell id="2L-C-8yUvBPhGsB8Wb2w-7" value="" style="aspect=fixed;pointerEvents=1;shadow=0;dashed=0;html=1;strokeColor=none;labelPosition=center;verticalLabelPosition=bottom;verticalAlign=top;align=center;fillColor=#00188D;shape=mxgraph.mscae.enterprise.application" parent="1" vertex="1">
          <mxGeometry x="363.81" y="490" width="176.47" height="120" as="geometry" />
        </mxCell>
        <mxCell id="2L-C-8yUvBPhGsB8Wb2w-14" value="" style="outlineConnect=0;fontColor=#232F3E;gradientColor=none;fillColor=#232F3E;strokeColor=none;dashed=0;verticalLabelPosition=bottom;verticalAlign=top;align=center;html=1;fontSize=12;fontStyle=0;aspect=fixed;pointerEvents=1;shape=mxgraph.aws4.internet_alt1;" parent="1" vertex="1">
          <mxGeometry x="363.81" y="275" width="162.51" height="100" as="geometry" />
        </mxCell>
        <mxCell id="2L-C-8yUvBPhGsB8Wb2w-24" value="" style="endArrow=classic;startArrow=classic;html=1;fontSize=19;" parent="1" source="2L-C-8yUvBPhGsB8Wb2w-14" target="2L-C-8yUvBPhGsB8Wb2w-6" edge="1">
          <mxGeometry width="50" height="50" relative="1" as="geometry">
            <mxPoint x="380" y="240" as="sourcePoint" />
            <mxPoint x="430" y="190" as="targetPoint" />
          </mxGeometry>
        </mxCell>
        <mxCell id="2L-C-8yUvBPhGsB8Wb2w-26" value="" style="endArrow=classic;startArrow=classic;html=1;fontSize=19;" parent="1" target="2L-C-8yUvBPhGsB8Wb2w-14" edge="1">
          <mxGeometry width="50" height="50" relative="1" as="geometry">
            <mxPoint x="447" y="490" as="sourcePoint" />
            <mxPoint x="470" y="400" as="targetPoint" />
          </mxGeometry>
        </mxCell>
        <mxCell id="2L-C-8yUvBPhGsB8Wb2w-27" value="Internet" style="text;html=1;strokeColor=none;fillColor=none;align=center;verticalAlign=middle;whiteSpace=wrap;rounded=0;fontSize=19;" parent="1" vertex="1">
          <mxGeometry x="270" y="315" width="40" height="20" as="geometry" />
        </mxCell>
        <mxCell id="2L-C-8yUvBPhGsB8Wb2w-28" value="Rails application" style="text;html=1;strokeColor=none;fillColor=none;align=center;verticalAlign=middle;whiteSpace=wrap;rounded=0;fontSize=19;" parent="1" vertex="1">
          <mxGeometry x="270" y="530" width="40" height="20" as="geometry" />
        </mxCell>
        <mxCell id="QjlcVA9k0Hzuv_SQqOKG-17" value="MySQL Database" style="text;html=1;strokeColor=none;fillColor=none;align=center;verticalAlign=middle;whiteSpace=wrap;rounded=0;fontSize=19;" vertex="1" parent="1">
          <mxGeometry x="1470" y="891" width="40" height="20" as="geometry" />
        </mxCell>
        <mxCell id="QjlcVA9k0Hzuv_SQqOKG-21" value="" style="outlineConnect=0;fontColor=#232F3E;gradientColor=none;fillColor=#3334B9;strokeColor=none;dashed=0;verticalLabelPosition=bottom;verticalAlign=top;align=center;html=1;fontSize=12;fontStyle=0;aspect=fixed;pointerEvents=1;shape=mxgraph.aws4.rds_mysql_instance;" vertex="1" parent="1">
          <mxGeometry x="1418.5" y="731" width="143" height="143" as="geometry" />
        </mxCell>
        <mxCell id="QjlcVA9k0Hzuv_SQqOKG-23" value="" style="outlineConnect=0;fontColor=#232F3E;gradientColor=#4D72F3;gradientDirection=north;fillColor=#3334B9;strokeColor=#ffffff;dashed=0;verticalLabelPosition=bottom;verticalAlign=top;align=center;html=1;fontSize=12;fontStyle=0;aspect=fixed;shape=mxgraph.aws4.resourceIcon;resIcon=mxgraph.aws4.dynamodb;" vertex="1" parent="1">
          <mxGeometry x="370" y="1070" width="140" height="140" as="geometry" />
        </mxCell>
        <mxCell id="QjlcVA9k0Hzuv_SQqOKG-34" value="" style="edgeStyle=orthogonalEdgeStyle;rounded=0;orthogonalLoop=1;jettySize=auto;html=1;startArrow=classic;startFill=1;fontSize=19;" edge="1" parent="1" source="QjlcVA9k0Hzuv_SQqOKG-25">
          <mxGeometry relative="1" as="geometry">
            <mxPoint x="443.80999999999995" y="1020" as="targetPoint" />
            <Array as="points">
              <mxPoint x="450" y="1020" />
            </Array>
          </mxGeometry>
        </mxCell>
        <mxCell id="QjlcVA9k0Hzuv_SQqOKG-25" value="" style="outlineConnect=0;dashed=0;verticalLabelPosition=bottom;verticalAlign=top;align=center;html=1;shape=mxgraph.aws3.dynamo_db;fillColor=#2E73B8;gradientColor=none;fontSize=19;" vertex="1" parent="1">
          <mxGeometry x="363.81" y="720" width="160" height="171" as="geometry" />
        </mxCell>
        <mxCell id="QjlcVA9k0Hzuv_SQqOKG-29" value="NoSQL Database" style="text;html=1;strokeColor=none;fillColor=none;align=center;verticalAlign=middle;whiteSpace=wrap;rounded=0;fontSize=19;" vertex="1" parent="1">
          <mxGeometry x="420" y="1230" width="40" height="20" as="geometry" />
        </mxCell>
        <mxCell id="QjlcVA9k0Hzuv_SQqOKG-32" value="Amazon DynamoDB" style="text;html=1;strokeColor=none;fillColor=none;align=center;verticalAlign=middle;whiteSpace=wrap;rounded=0;fontSize=19;" vertex="1" parent="1">
          <mxGeometry x="270" y="805.5" width="40" as="geometry" />
        </mxCell>
        <mxCell id="QjlcVA9k0Hzuv_SQqOKG-37" value="" style="edgeStyle=orthogonalEdgeStyle;rounded=0;orthogonalLoop=1;jettySize=auto;html=1;startArrow=classic;startFill=1;fontSize=19;" edge="1" parent="1" source="QjlcVA9k0Hzuv_SQqOKG-35">
          <mxGeometry relative="1" as="geometry">
            <mxPoint x="530" y="610" as="targetPoint" />
            <Array as="points">
              <mxPoint x="860" y="960" />
              <mxPoint x="650" y="960" />
              <mxPoint x="650" y="640" />
              <mxPoint x="530" y="640" />
            </Array>
          </mxGeometry>
        </mxCell>
        <mxCell id="QjlcVA9k0Hzuv_SQqOKG-57" value="" style="edgeStyle=orthogonalEdgeStyle;rounded=0;orthogonalLoop=1;jettySize=auto;html=1;startArrow=classic;startFill=1;fontSize=19;" edge="1" parent="1" source="QjlcVA9k0Hzuv_SQqOKG-35">
          <mxGeometry relative="1" as="geometry">
            <mxPoint x="1295" y="1130" as="targetPoint" />
          </mxGeometry>
        </mxCell>
        <mxCell id="QjlcVA9k0Hzuv_SQqOKG-35" value="" style="outlineConnect=0;dashed=0;verticalLabelPosition=bottom;verticalAlign=top;align=center;html=1;shape=mxgraph.aws3.redshift;fillColor=#2E73B8;gradientColor=none;fontSize=19;" vertex="1" parent="1">
          <mxGeometry x="920" y="1050" width="180" height="160" as="geometry" />
        </mxCell>
        <mxCell id="QjlcVA9k0Hzuv_SQqOKG-38" value="Amazon Redshift" style="text;html=1;strokeColor=none;fillColor=none;align=center;verticalAlign=middle;whiteSpace=wrap;rounded=0;fontSize=19;" vertex="1" parent="1">
          <mxGeometry x="990" y="1225.5" width="40" height="34.5" as="geometry" />
        </mxCell>
        <mxCell id="QjlcVA9k0Hzuv_SQqOKG-55" value="" style="edgeStyle=orthogonalEdgeStyle;rounded=0;orthogonalLoop=1;jettySize=auto;html=1;startArrow=classic;startFill=1;fontSize=19;" edge="1" parent="1" source="QjlcVA9k0Hzuv_SQqOKG-40">
          <mxGeometry relative="1" as="geometry">
            <mxPoint x="1300" y="811" as="targetPoint" />
          </mxGeometry>
        </mxCell>
        <mxCell id="QjlcVA9k0Hzuv_SQqOKG-40" value="" style="outlineConnect=0;dashed=0;verticalLabelPosition=bottom;verticalAlign=top;align=center;html=1;shape=mxgraph.aws3.rds;fillColor=#2E73B8;gradientColor=none;fontSize=19;" vertex="1" parent="1">
          <mxGeometry x="940" y="731" width="140" height="160" as="geometry" />
        </mxCell>
        <mxCell id="QjlcVA9k0Hzuv_SQqOKG-41" value="Amazon RDS" style="text;html=1;strokeColor=none;fillColor=none;align=center;verticalAlign=middle;whiteSpace=wrap;rounded=0;fontSize=19;" vertex="1" parent="1">
          <mxGeometry x="990" y="911" width="40" height="34.5" as="geometry" />
        </mxCell>
        <mxCell id="QjlcVA9k0Hzuv_SQqOKG-44" value="" style="outlineConnect=0;fontColor=#232F3E;gradientColor=none;fillColor=#3334B9;strokeColor=none;dashed=0;verticalLabelPosition=bottom;verticalAlign=top;align=center;html=1;fontSize=12;fontStyle=0;aspect=fixed;pointerEvents=1;shape=mxgraph.aws4.rds_postgresql_instance;" vertex="1" parent="1">
          <mxGeometry x="1420" y="1060" width="150" height="150" as="geometry" />
        </mxCell>
        <mxCell id="QjlcVA9k0Hzuv_SQqOKG-45" value="PostgreSQL Database" style="text;html=1;strokeColor=none;fillColor=none;align=center;verticalAlign=middle;whiteSpace=wrap;rounded=0;fontSize=19;" vertex="1" parent="1">
          <mxGeometry x="1475" y="1230" width="40" height="20" as="geometry" />
        </mxCell>
        <mxCell id="QjlcVA9k0Hzuv_SQqOKG-58" style="edgeStyle=orthogonalEdgeStyle;rounded=0;orthogonalLoop=1;jettySize=auto;html=1;exitX=0.5;exitY=1;exitDx=0;exitDy=0;startArrow=classic;startFill=1;fontSize=19;" edge="1" parent="1" source="QjlcVA9k0Hzuv_SQqOKG-41" target="QjlcVA9k0Hzuv_SQqOKG-41">
          <mxGeometry relative="1" as="geometry" />
        </mxCell>
        <mxCell id="QjlcVA9k0Hzuv_SQqOKG-59" value="Server contents" style="points=[[0,0],[0.25,0],[0.5,0],[0.75,0],[1,0],[1,0.25],[1,0.5],[1,0.75],[1,1],[0.75,1],[0.5,1],[0.25,1],[0,1],[0,0.75],[0,0.5],[0,0.25]];outlineConnect=0;gradientColor=none;html=1;whiteSpace=wrap;fontSize=12;fontStyle=0;shape=mxgraph.aws4.group;grIcon=mxgraph.aws4.group_on_premise;strokeColor=#5A6C86;fillColor=none;verticalAlign=top;align=left;spacingLeft=30;fontColor=#5A6C86;dashed=0;" vertex="1" parent="1">
          <mxGeometry x="190" y="675.5" width="1540" height="654.5" as="geometry" />
        </mxCell>
        <mxCell id="QjlcVA9k0Hzuv_SQqOKG-60" value="DATA LAKE" style="text;html=1;strokeColor=none;fillColor=none;align=center;verticalAlign=middle;whiteSpace=wrap;rounded=0;fontSize=19;" vertex="1" parent="1">
          <mxGeometry x="1160" y="1160" width="40" height="20" as="geometry" />
        </mxCell>
      </root>
    </mxGraphModel>
  </diagram>
</mxfile>
